<svg xmlns="http://www.w3.org/2000/svg" xmlns:xlink="http://www.w3.org/1999/xlink" width="500" zoomAndPan="magnify" viewBox="0 0 375 374.999991" height="500" preserveAspectRatio="xMidYMid meet" version="1.0"><path fill="#ffffff" d="M 319.132812 290.300781 C 308.140625 303.898438 290.378906 299.007812 275.722656 308.539062 C 261.066406 318.074219 250.527344 343.65625 233.640625 348.195312 C 216.753906 352.734375 205.261719 338.335938 187.800781 337.433594 C 170.339844 336.53125 146.773438 351.035156 130.445312 344.78125 C 114.117188 338.527344 113.28125 320.121094 99.6875 309.128906 C 86.089844 298.136719 58.503906 296.019531 48.96875 281.363281 C 39.433594 266.707031 49.574219 251.324219 45.035156 234.441406 C 40.5 217.554688 19.425781 199.625 20.328125 182.164062 C 21.226562 164.703125 38.472656 158.21875 44.726562 141.890625 C 50.980469 125.5625 44.46875 98.671875 55.460938 85.078125 C 66.457031 71.480469 84.21875 76.371094 98.875 66.835938 C 113.53125 57.304688 124.070312 31.722656 140.953125 27.183594 C 157.839844 22.644531 169.335938 37.042969 186.796875 37.945312 C 204.257812 38.84375 227.820312 24.34375 244.148438 30.597656 C 260.476562 36.851562 261.3125 55.253906 274.910156 66.246094 C 288.507812 77.242188 316.09375 79.359375 325.628906 94.015625 C 335.160156 108.671875 325.019531 124.050781 329.558594 140.9375 C 334.097656 157.824219 355.171875 175.75 354.269531 193.214844 C 353.367188 210.675781 336.121094 217.15625 329.867188 233.484375 C 323.617188 249.8125 330.125 276.703125 319.132812 290.300781 Z M 319.132812 290.300781 " fill-opacity="1" fill-rule="nonzero"/><path fill="#15c39a" d="M 308.316406 281.882812 C 298.226562 294.363281 281.921875 289.875 268.46875 298.625 C 255.011719 307.378906 245.339844 330.859375 229.839844 335.027344 C 214.339844 339.195312 203.789062 325.976562 187.757812 325.148438 C 171.730469 324.320312 150.101562 337.632812 135.109375 331.894531 C 120.121094 326.152344 119.355469 309.257812 106.875 299.167969 C 94.390625 289.078125 69.070312 287.132812 60.316406 273.679688 C 51.5625 260.222656 60.875 246.105469 56.707031 230.605469 C 52.542969 215.105469 33.195312 198.648438 34.023438 182.617188 C 34.851562 166.589844 50.683594 160.636719 56.421875 145.648438 C 62.164062 130.660156 56.1875 105.976562 66.277344 93.496094 C 76.371094 81.011719 92.675781 85.503906 106.128906 76.75 C 119.582031 68 129.257812 44.515625 144.757812 40.351562 C 160.257812 36.183594 170.808594 49.402344 186.835938 50.226562 C 202.867188 51.054688 224.496094 37.742188 239.484375 43.484375 C 254.472656 49.226562 255.242188 66.117188 267.722656 76.210938 C 280.203125 86.300781 305.527344 88.246094 314.28125 101.699219 C 323.03125 115.152344 313.722656 129.273438 317.886719 144.773438 C 322.054688 160.273438 341.398438 176.730469 340.570312 192.761719 C 339.742188 208.789062 323.914062 214.738281 318.171875 229.730469 C 312.433594 244.71875 318.410156 269.402344 308.316406 281.882812 Z M 308.316406 281.882812 " fill-opacity="1" fill-rule="nonzero"/><path fill="#ffffff" d="M 164.378906 244.160156 C 164.441406 244.21875 164.539062 244.21875 164.597656 244.160156 L 264.914062 143.84375 C 265.367188 143.390625 265.367188 142.660156 264.914062 142.210938 L 254.066406 131.363281 C 253.613281 130.910156 252.886719 130.910156 252.433594 131.363281 L 165.445312 218.347656 L 121.636719 174.539062 C 121.578125 174.476562 121.480469 174.476562 121.421875 174.539062 L 108.199219 187.761719 C 108.136719 187.820312 108.136719 187.917969 108.199219 187.976562 L 152.824219 232.605469 Z M 164.378906 244.160156 " fill-opacity="1" fill-rule="nonzero"/></svg>